<svg width="100" height="134" viewBox="0 0 100 134" fill="none" xmlns="http://www.w3.org/2000/svg">
  <path fill-rule="evenodd" clip-rule="evenodd"
        d="M50 133.616C79.8901 116.334 100 84.0323 100 47.0361C100 33.6535 97.3686 20.8851 92.5949 9.21972C79.823 3.30244 65.5915 0 50.5882 0C35.0127 0 20.2688 3.55921 7.12635 9.90829C2.52901 21.3869 0 33.9163 0 47.0361C0 84.0323 20.1099 116.334 50 133.616Z"
        fill="#0892D4"/>
  <path fill-rule="evenodd" clip-rule="evenodd"
        d="M50.4307 133.641C80.0022 116.229 99.8528 84.0206 99.8528 47.166C99.8528 33.7464 97.2209 20.9428 92.4461 9.24519C79.6715 3.31156 65.437 0 50.4307 0V133.641Z"
        fill="#61DBFB"/>
  <path fill-rule="evenodd" clip-rule="evenodd"
        d="M15.1639 75.1318L25.0293 52.7789C25.1604 52.473 25.2259 52.2381 25.2259 52.0743C25.2259 51.9104 25.1604 51.6537 25.0293 51.304L16.311 31.901C16.0925 31.3984 16.1034 30.956 16.3438 30.5736C16.5841 30.1912 16.9228 30 17.3598 30H24.9637C25.51 30 25.9361 30.3387 26.242 31.016L31.8138 44.9128C31.9012 45.1313 32.0323 45.2406 32.2071 45.2406C32.3819 45.2406 32.513 45.1313 32.6004 44.9128L38.1722 31.016C38.4782 30.3387 38.9042 30 39.4505 30H47.0544C47.4914 30 47.8355 30.1912 48.0868 30.5736C48.3381 30.956 48.3436 31.3984 48.1032 31.901L39.3849 51.3696C39.2538 51.7192 39.1883 51.9705 39.1883 52.1234C39.1883 52.2764 39.2538 52.5167 39.3849 52.8445L49.2504 75.1318C49.3596 75.3722 49.4142 75.6016 49.4142 75.8201C49.4142 76.0604 49.3487 76.268 49.2176 76.4428C48.9772 76.8143 48.6276 77 48.1688 77H40.2699C39.5488 77 39.079 76.6613 38.8605 75.984L32.6004 60.0879C32.513 59.8694 32.3819 59.7601 32.2071 59.7601C32.0323 59.7601 31.9012 59.8694 31.8138 60.0879L25.5537 75.984C25.3352 76.6613 24.8654 77 24.1444 77H16.2455C15.8085 77 15.4589 76.8033 15.1967 76.41C15.0656 76.2134 15 75.9949 15 75.7545C15 75.5579 15.0546 75.3503 15.1639 75.1318ZM54.7566 75.6562V31.3438C54.7566 30.9942 54.8932 30.6828 55.1663 30.4097C55.4395 30.1366 55.7508 30 56.1004 30H70.8822C72.805 30 74.624 30.3715 76.3393 31.1144C78.0545 31.8573 79.5513 32.8678 80.8295 34.1461C82.1078 35.4243 83.1183 36.9211 83.8612 38.6363C84.6041 40.3516 84.9756 42.1706 84.9756 44.0934C84.9756 46.06 84.6041 47.8954 83.8612 49.5997C83.1183 51.3041 82.1078 52.7953 80.8295 54.0736C79.5513 55.3518 78.0545 56.3624 76.3393 57.1053C74.624 57.8482 72.805 58.2197 70.8822 58.2197H64.8187C64.3817 58.2197 64.1632 58.4382 64.1632 58.8752V75.6562C64.1632 76.0058 64.0266 76.3172 63.7535 76.5903C63.4804 76.8634 63.169 77 62.8194 77H56.1004C55.7508 77 55.4395 76.8634 55.1663 76.5903C54.8932 76.3172 54.7566 76.0058 54.7566 75.6562ZM64.1632 48.1248C64.1632 48.5618 64.3817 48.7913 64.8187 48.8131H70.8822C72.1713 48.8131 73.2748 48.3543 74.1925 47.4365C75.1102 46.5188 75.569 45.4045 75.569 44.0934C75.569 42.8043 75.1102 41.7008 74.1925 40.7831C73.2748 39.8654 72.1713 39.4066 70.8822 39.4066H64.8187C64.3817 39.4066 64.1632 39.636 64.1632 40.0948V48.1248Z"
        fill="black"/>
</svg>
