<?xml version="1.0" encoding="utf-8"?>
<!DOCTYPE svg PUBLIC "-//W3C//DTD SVG 1.1//EN" "http://www.w3.org/Graphics/SVG/1.1/DTD/svg11.dtd">
<svg version="1.1" id="Layer_4" xmlns="http://www.w3.org/2000/svg" xmlns:xlink="http://www.w3.org/1999/xlink" x="0px" y="0px"
	 viewBox="0 0 1015 1350" enable-background="new 0 0 1015 1350" xml:space="preserve">
<path fill="#F0503F" d="M85.9,118.6c0,0-127.3,267.8-39.1,610c109.8,426,460.4,604.9,460.4,604.9s357.2-178.7,464.8-621
	c80.5-330.9-47.1-600.7-47.1-600.7S754,21.4,511.3,21.4C265,21.4,85.9,118.6,85.9,118.6z"/>
<path fill="#F3776A" d="M511.3,1209.9V135.1c0,0,73.9-4.2,180.4,20.6c86.1,20,157.8,53.3,157.8,53.3s120.4,232.5,23.6,551.3
	C781.2,1063.2,511.3,1209.9,511.3,1209.9z"/>
<path fill="none" stroke="#FFFFFF" stroke-miterlimit="10" d="M656.8,964.7"/>
<g>
	<path fill="#FFFFFF" d="M944.3,581.1c0-57.4-71.9-111.8-182.1-145.5c25.4-112.3,14.1-201.7-35.7-230.3c-11.5-6.7-24.9-9.9-39.6-9.9
		v39.4c8.1,0,14.7,1.6,20.1,4.6c24,13.8,34.4,66.2,26.3,133.7c-1.9,16.6-5.1,34.1-9,51.9c-34.6-8.5-72.4-15-112.1-19.2
		c-23.8-32.7-48.6-62.3-73.5-88.3c57.6-53.5,111.6-82.8,148.3-82.8v-39.4l0,0c-48.6,0-112.1,34.6-176.4,94.6
		C446.5,230.3,383,196,334.4,196v39.4c36.6,0,90.8,29.1,148.3,82.3c-24.7,26-49.4,55.4-72.9,88.1c-39.9,4.2-77.7,10.8-112.3,19.4
		c-4.1-17.7-7.1-34.8-9.2-51.2c-8.3-67.5,1.9-119.9,25.8-133.8c5.3-3.2,12.2-4.6,20.3-4.6v-39.4l0,0c-14.8,0-28.3,3.2-39.9,9.9
		c-49.6,28.6-60.7,117.8-35.1,229.7C149.5,469.7,78,523.9,78,581.1c0,57.4,71.9,111.8,182.1,145.5
		c-25.4,112.3-14.1,201.7,35.7,230.3c11.5,6.7,24.9,9.9,39.7,9.9c48.6,0,112.1-34.6,176.4-94.6c64.3,59.7,127.8,93.9,176.4,93.9
		c14.8,0,28.3-3.2,39.9-9.9c49.6-28.6,60.7-117.8,35.1-229.7C872.8,692.7,944.3,638.3,944.3,581.1z M714.4,463.3
		c-6.5,22.8-14.7,46.3-23.8,69.7c-7.2-14.1-14.8-28.3-23.1-42.4c-8.1-14.1-16.8-27.9-25.4-41.3C667.1,453.1,691.3,457.7,714.4,463.3
		z M633.5,651.4c-13.8,23.8-27.9,46.4-42.6,67.5c-26.3,2.3-53,3.5-79.8,3.5c-26.7,0-53.3-1.2-79.5-3.4c-14.7-21-29-43.4-42.7-67.1
		c-13.4-23.1-25.6-46.6-36.7-70.3c10.9-23.7,23.3-47.3,36.6-70.5c13.8-23.8,27.9-46.4,42.6-67.5c26.3-2.3,53-3.5,79.8-3.5
		c26.7,0,53.3,1.2,79.5,3.4c14.7,21,29,43.4,42.7,67.1c13.4,23.1,25.6,46.6,36.7,70.3C659,604.6,646.8,628.3,633.5,651.4z
		 M690.6,628.4c9.5,23.7,17.7,47.3,24.4,70.3c-23.1,5.7-47.5,10.4-72.8,14.1c8.7-13.6,17.3-27.5,25.4-41.8
		C675.7,656.9,683.3,642.6,690.6,628.4z M511.5,816.9c-16.4-17-32.8-35.8-49.1-56.5c15.9,0.7,32.1,1.2,48.6,1.2
		c16.6,0,33-0.4,49.1-1.2C544.2,781,527.8,799.9,511.5,816.9z M380.1,712.8c-25.1-3.7-49.3-8.3-72.4-13.9
		c6.5-22.8,14.7-46.3,23.8-69.7c7.2,14.1,14.8,28.3,23.1,42.4C363,685.7,371.5,699.4,380.1,712.8z M510.6,345.4
		c16.4,17,32.8,35.8,49.1,56.5c-15.9-0.7-32.1-1.2-48.6-1.2c-16.6,0-33,0.4-49.1,1.2C478,381.2,494.4,362.3,510.6,345.4z M380,449.4
		c-8.7,13.6-17.3,27.5-25.4,41.8c-8.1,14.1-15.7,28.3-23,42.4c-9.5-23.7-17.7-47.3-24.4-70.3C330.3,457.9,354.7,453.1,380,449.4z
		 M220.2,670.5c-62.5-26.7-102.9-61.6-102.9-89.3s40.4-62.9,102.9-89.3c15.2-6.5,31.8-12.4,48.9-17.8
		c10.1,34.6,23.3,70.6,39.7,107.5c-16.2,36.7-29.3,72.6-39.2,107C252.1,683,235.5,677,220.2,670.5z M315.2,922.8
		c-24-13.8-34.4-66.2-26.3-133.7c1.9-16.6,5.1-34.1,9-51.9c34.6,8.5,72.4,15,112.1,19.2c23.8,32.7,48.6,62.3,73.5,88.3
		c-57.6,53.5-111.6,82.8-148.3,82.8C327.2,927.4,320.5,925.8,315.2,922.8z M734,788.2c8.3,67.5-1.9,119.9-25.8,133.8
		c-5.3,3.2-12.2,4.6-20.3,4.6c-36.6,0-90.8-29.1-148.3-82.3c24.7-26,49.4-55.4,72.9-88.1c39.9-4.2,77.7-10.8,112.3-19.4
		C728.9,754.7,732.1,771.8,734,788.2z M802,670.5c-15.2,6.5-31.8,12.4-48.9,17.8c-10.1-34.6-23.3-70.6-39.7-107.5
		c16.2-36.7,29.3-72.6,39.2-107c17.5,5.5,34.1,11.5,49.6,18c62.5,26.7,102.9,61.6,102.9,89.3C904.9,608.8,864.5,644,802,670.5z"/>
	<path fill="#FFFFFF" d="M334.2,196L334.2,196L334.2,196z"/>
	<circle fill="#FFFFFF" cx="511" cy="581.1" r="80.7"/>
	<path fill="#FFFFFF" d="M686.9,195.5L686.9,195.5L686.9,195.5z"/>
</g>
</svg>
